<svg width="72" height="92" viewBox="0 0 72 92" fill="none" xmlns="http://www.w3.org/2000/svg">
<path d="M1.25 42.0813L30.9375 2.5C31.5197 1.72377 32.2746 1.09375 33.1424 0.65983C34.0103 0.225907 34.9672 0 35.9375 0C36.9078 0 37.8647 0.225907 38.7326 0.65983C39.6004 1.09375 40.3553 1.72377 40.9375 2.5L70.625 42.0813C71.4364 43.1631 71.875 44.4789 71.875 45.8313C71.875 47.1836 71.4364 48.4994 70.625 49.5813L40.9375 89.1625C40.3553 89.9387 39.6004 90.5688 38.7326 91.0027C37.8647 91.4366 36.9078 91.6625 35.9375 91.6625C34.9672 91.6625 34.0103 91.4366 33.1424 91.0027C32.2746 90.5688 31.5197 89.9387 30.9375 89.1625L1.25 49.5813C0.438612 48.4994 0 47.1836 0 45.8313C0 44.4789 0.438612 43.1631 1.25 42.0813Z" fill="#1B778B"/>
</svg>
