<svg width="56" height="16" viewBox="0 0 56 16" fill="none" xmlns="http://www.w3.org/2000/svg">
<path d="M0 15.6783H2.70258L4.83951 10.5809H2.13692L0 15.6783Z" fill="#F9423A"/>
<path d="M9.7419 5.35596L5.46805 15.6783H8.17063L12.4445 5.35596H9.7419Z" fill="#F9423A"/>
<path d="M17.2839 0.258484L10.8732 15.6784H13.6386L20.0494 0.258484H17.2839Z" fill="#F9423A"/>
<path d="M20.6779 0.258484L19.358 3.50813L21.9978 9.87997H16.7183L15.6498 12.4287H23.0034L24.3861 15.6784H27.0887L20.6779 0.258484Z" fill="#F9423A"/>
<path d="M28.3457 0.194909H35.1964C35.9248 0.14928 36.655 0.249594 37.3452 0.49012C38.0354 0.730646 38.672 1.10667 39.2189 1.59672C39.5516 1.92768 39.8128 2.32516 39.9859 2.76393C40.159 3.2027 40.2403 3.67316 40.2245 4.14545V4.20917C40.2363 4.93933 40.0334 5.65653 39.6416 6.26933C39.2499 6.88213 38.687 7.36277 38.0247 7.64997C39.7845 8.28715 41.0415 9.30665 41.0415 11.4094V11.4731C41.0415 14.213 38.7789 15.7422 35.385 15.7422H28.3457V0.194909ZM34.6307 6.75791C36.3277 6.75791 37.5219 6.05701 37.5219 4.6552V4.59148C37.5219 3.38083 36.5791 2.61621 34.8193 2.61621H30.9854V6.75791H34.6307ZM35.4478 13.3209C37.2705 13.3209 38.4018 12.62 38.4018 11.2182V11.1545C38.4018 9.88011 37.3962 9.05177 35.2593 9.05177H30.9854V13.3209H35.4478ZM42.2357 7.96856C42.2074 6.92021 42.3892 5.87695 42.7701 4.90187C43.151 3.9268 43.723 3.04017 44.4515 2.29563C45.18 1.55109 46.0499 0.964096 47.0086 0.570164C47.9674 0.176231 48.9949 -0.0164573 50.0292 0.00375371C51.1257 -0.0302794 52.2173 0.167417 53.2344 0.58427C54.2515 1.00112 55.172 1.62801 55.9371 2.42506L54.2402 4.40033C53.6902 3.808 53.0285 3.3336 52.2944 3.00525C51.5603 2.6769 50.7686 2.50127 49.9663 2.48877C47.0752 2.48877 44.9383 4.91007 44.9383 7.90484V7.96856C44.9383 10.9633 47.0123 13.4483 49.9663 13.4483C51.8518 13.4483 53.046 12.6837 54.303 11.4731L56 13.2572C55.236 14.1459 54.2877 14.8524 53.2228 15.3261C52.158 15.7998 51.003 16.0289 49.8406 15.9971C48.8205 15.9789 47.8139 15.7565 46.8789 15.3426C45.9438 14.9288 45.0986 14.3317 44.3919 13.5856C43.6852 12.8395 43.1309 11.9592 42.7609 10.9952C42.3908 10.0313 42.2123 9.00267 42.2357 7.96856Z" fill="#F9423A"/>
</svg>
