<svg width="80" height="80" viewBox="0 0 80 80" fill="none" xmlns="http://www.w3.org/2000/svg">
<rect width="80" height="80" rx="20" fill="url(#paint0_linear_692_164)"/>
<path d="M15 61V49C15 46.0963 18.0871 43 21 43H28.5C29.6667 43 32.3 43.4 33.5 45C34.7 46.6 39.6667 52.3333 42 55L51 54.5L55 53.5L60 57.5L59 59L54.5 58L51 61H38L28 50" stroke="#2199B4" stroke-width="1.6" stroke-linecap="round" stroke-linejoin="round"/>
<path d="M32 54.5V61" stroke="#2199B4" stroke-width="1.6" stroke-linecap="round" stroke-linejoin="round"/>
<path d="M48 55V61" stroke="#2199B4" stroke-width="1.6" stroke-linecap="round" stroke-linejoin="round"/>
<path d="M30 31V38C30 39 29.5 40.5 27 41" stroke="#2199B4" stroke-width="1.6" stroke-linecap="round" stroke-linejoin="round"/>
<path d="M20 43V38C18 37 16 34.3 16 31.5C16 28.7194 18.2488 26 21 26H29.4194C30.8446 26 32 27.1193 32 28.5C32 29.8807 30.8446 31 29.4194 31H27L24 34V38L27 41V43" stroke="#2199B4" stroke-width="1.6"/>
<path d="M24 38H20" stroke="#2199B4" stroke-width="1.6" stroke-linecap="round" stroke-linejoin="round"/>
<path d="M57 52H59C61.2091 52 63 50.2091 63 48V23C63 20.7909 61.2091 19 59 19H27C24.7909 19 23 20.7909 23 23V26" stroke="#2199B4" stroke-width="1.6" stroke-linecap="round"/>
<circle cx="27" cy="22" r="1" fill="#2199B4"/>
<circle cx="30" cy="22" r="1" fill="#2199B4"/>
<circle cx="33" cy="22" r="1" fill="#2199B4"/>
<path d="M57 26H52" stroke="#2199B4" stroke-width="1.6" stroke-linecap="round" stroke-linejoin="round"/>
<circle cx="38.5" cy="33.5" r="2.5" stroke="#2199B4" stroke-width="1.6"/>
<circle cx="49.5" cy="25.5" r="2.5" stroke="#2199B4" stroke-width="1.6"/>
<path d="M47.5 27L40.7 32M36.5 35.0882L33.5 37.2941" stroke="#2199B4" stroke-width="1.6" stroke-linecap="round" stroke-linejoin="round"/>
<path d="M45 49V45C45 44.4477 44.5523 44 44 44H40C39.4477 44 39 44.4477 39 45V47" stroke="#2199B4" stroke-width="1.6" stroke-linecap="round"/>
<path d="M51 49V41C51 40.4477 50.5523 40 50 40H46C45.4477 40 45 40.4477 45 41V49" stroke="#2199B4" stroke-width="1.6" stroke-linecap="round"/>
<path d="M57 49V36C57 35.4477 56.5523 35 56 35H52C51.4477 35 51 35.4477 51 36V49" stroke="#2199B4" stroke-width="1.6" stroke-linecap="round"/>
<defs>
<linearGradient id="paint0_linear_692_164" x1="6.86352e-06" y1="80" x2="49.1944" y2="118.929" gradientUnits="userSpaceOnUse">
<stop stop-color="#F6F6F6"/>
<stop offset="1" stop-color="#F4FBFF"/>
</linearGradient>
</defs>
</svg>
