<svg width="46" height="42" viewBox="0 0 46 42" fill="none" xmlns="http://www.w3.org/2000/svg">
<path d="M18 6.5C18 2.65 20.7778 1 23 1C25.2222 1 28 2.65 28 6.5C28 8.15 26.8889 10.35 23 12C19.1111 10.35 18 8.15 18 6.5Z" stroke="#2199B4" stroke-width="1.6"/>
<path d="M34 27L33.398 18.5725C33.1738 15.4327 30.5611 13 27.4133 13H18.5867C15.4389 13 12.8262 15.4327 12.602 18.5725L12 27" stroke="#2199B4" stroke-width="1.6" stroke-linecap="round"/>
<path d="M16 27.5L17 19" stroke="#2199B4" stroke-width="1.6" stroke-linecap="round"/>
<path d="M30 27.5L29 19" stroke="#2199B4" stroke-width="1.6" stroke-linecap="round"/>
<path d="M22.81 24.5787C22.8702 24.3953 23.1298 24.3953 23.19 24.5787L24.9614 29.9738C24.9884 30.056 25.065 30.1115 25.1514 30.1115H30.8792C31.0735 30.1115 31.1537 30.3604 30.996 30.4738L26.3657 33.803C26.2949 33.8539 26.2652 33.9449 26.2924 34.0278L28.0619 39.417C28.1223 39.6009 27.9123 39.7548 27.7551 39.6418L23.1168 36.3069C23.047 36.2567 22.953 36.2567 22.8832 36.3069L18.2449 39.6418C18.0877 39.7548 17.8777 39.6009 17.9381 39.417L19.7076 34.0278C19.7348 33.9449 19.7051 33.8539 19.6343 33.803L15.004 30.4738C14.8463 30.3604 14.9265 30.1115 15.1208 30.1115H20.8486C20.935 30.1115 21.0116 30.056 21.0386 29.9738L22.81 24.5787Z" stroke="#2199B4" stroke-width="1.6"/>
<path d="M7.81023 28.5702C7.87095 28.3878 8.12905 28.3878 8.18977 28.5702L9.60693 32.8287C9.63413 32.9104 9.71058 32.9656 9.7967 32.9656H14.3724C14.5673 32.9656 14.6471 33.2159 14.4881 33.3287L10.7946 35.9487C10.7228 35.9996 10.6928 36.0915 10.7205 36.175L12.1333 40.4201C12.1943 40.6036 11.9855 40.7583 11.8278 40.6464L8.11571 38.0132C8.0464 37.964 7.95359 37.964 7.88428 38.0132L4.17222 40.6464C4.01454 40.7583 3.80569 40.6036 3.86673 40.4201L5.27946 36.175C5.30725 36.0915 5.27719 35.9996 5.20541 35.9487L1.5119 33.3287C1.35293 33.2159 1.43272 32.9656 1.62762 32.9656H6.2033C6.28942 32.9656 6.36587 32.9104 6.39306 32.8287L7.81023 28.5702Z" stroke="#2199B4" stroke-width="1.6"/>
<path d="M37.8102 28.5702C37.871 28.3878 38.129 28.3878 38.1898 28.5702L39.6069 32.8287C39.6341 32.9104 39.7106 32.9656 39.7967 32.9656H44.3724C44.5673 32.9656 44.6471 33.2159 44.4881 33.3287L40.7946 35.9487C40.7228 35.9996 40.6928 36.0915 40.7205 36.175L42.1333 40.4201C42.1943 40.6036 41.9855 40.7583 41.8278 40.6464L38.1157 38.0132C38.0464 37.964 37.9536 37.964 37.8843 38.0132L34.1722 40.6464C34.0145 40.7583 33.8057 40.6036 33.8667 40.4201L35.2795 36.175C35.3072 36.0915 35.2772 35.9996 35.2054 35.9487L31.5119 33.3287C31.3529 33.2159 31.4327 32.9656 31.6276 32.9656H36.2033C36.2894 32.9656 36.3659 32.9104 36.3931 32.8287L37.8102 28.5702Z" stroke="#2199B4" stroke-width="1.6"/>
</svg>
