<svg width="80" height="80" viewBox="0 0 80 80" fill="none" xmlns="http://www.w3.org/2000/svg">
<rect width="80" height="80" rx="20" fill="url(#paint0_linear_692_161)"/>
<path d="M31.392 61.7159V60.4059C31.392 60.0923 31.1411 59.8314 30.8289 59.802C18.5593 58.6447 17.2274 51.1167 18.2941 46.401C18.4124 45.8778 19.1041 45.8367 19.3695 46.3028C22.5884 51.9551 28.0167 52.9632 30.8842 52.7114C31.1786 52.6855 31.392 52.4322 31.392 52.1368V50.283C31.392 49.7826 31.9685 49.502 32.3623 49.8108L39.4171 55.3429C39.7173 55.5783 39.7244 56.0305 39.4318 56.2753L32.377 62.1762C31.9864 62.5029 31.392 62.2251 31.392 61.7159Z" stroke="#2199B4" stroke-width="1.6" stroke-linejoin="round"/>
<path d="M49.608 19.2841V20.5941C49.608 20.9077 49.8589 21.1686 50.1711 21.198C62.4407 22.3553 63.7726 29.8833 62.7059 34.599C62.5876 35.1222 61.8959 35.1633 61.6305 34.6972C58.4116 29.0449 52.9833 28.0368 50.1158 28.2886C49.8214 28.3145 49.608 28.5678 49.608 28.8632V30.717C49.608 31.2174 49.0315 31.498 48.6377 31.1892L41.5829 25.6571C41.2827 25.4217 41.2756 24.9695 41.5682 24.7247L48.623 18.8238C49.0136 18.4971 49.608 18.7749 49.608 19.2841Z" stroke="#2199B4" stroke-width="1.6" stroke-linejoin="round"/>
<circle cx="55" cy="53" r="11" stroke="#2199B4" stroke-width="1.6"/>
<path d="M57.367 50.2173C57.0513 46.7301 52.3919 46.8487 52.1228 50.1961C51.8985 52.9856 58.1409 52.4555 57.8717 55.8029C57.6026 59.1504 51.4051 59.1225 51.7191 55.2172" stroke="#2199B4" stroke-width="2" stroke-linecap="round"/>
<path d="M54.9998 46V47.1195" stroke="#2199B4" stroke-width="2" stroke-linecap="round"/>
<path d="M54.9998 58.3206V59.9998" stroke="#2199B4" stroke-width="2" stroke-linecap="round"/>
<path d="M20 24.6275C20 19.8159 24.1667 16 28.5 16C32.8333 16 37 19.8159 37 24.6275C37 27.0931 36.2274 28.5463 35.474 29.8808C34.7572 31.1505 33.9091 32.3895 33.9091 34.5134V36.5064C33.9091 37.611 33.0137 38.5064 31.9091 38.5064H25.0909C23.9863 38.5064 23.0909 37.611 23.0909 36.5064V34.5134C23.0909 32.3895 22.2428 31.1505 21.526 29.8808C20.7726 28.5463 20 27.0931 20 24.6275Z" stroke="#2199B4" stroke-width="1.6"/>
<path d="M32.362 38.5063V39.5072C32.362 40.6117 31.4666 41.5072 30.362 41.5072H26.6348C25.5302 41.5072 24.6348 40.6117 24.6348 39.5072V38.5063" stroke="#2199B4" stroke-width="1.6"/>
<path d="M30.818 41.5073V42C30.818 43.1045 29.9226 44 28.818 44H28.1816C27.0771 44 26.1816 43.1045 26.1816 42V41.5073" stroke="#2199B4" stroke-width="1.6"/>
<path d="M23.0918 35.5055H33.91" stroke="#2199B4" stroke-width="1.6" stroke-linejoin="round"/>
<path d="M26.9554 24.6275C26.9554 23.5917 26.0905 22.752 25.0236 22.752C23.9567 22.752 23.0918 23.5917 23.0918 24.6275C23.0918 25.6633 23.9567 26.503 25.0236 26.503H30.4327" stroke="#2199B4" stroke-width="1.6"/>
<path d="M26.9551 24.6274V35.5056" stroke="#2199B4" stroke-width="1.6" stroke-linejoin="round"/>
<path d="M30.0449 24.6274V35.5056" stroke="#2199B4" stroke-width="1.6" stroke-linejoin="round"/>
<path d="M30.0458 24.6275C30.0458 23.5917 30.9107 22.752 31.9776 22.752C33.0445 22.752 33.9094 23.5917 33.9094 24.6275C33.9094 25.6633 33.0445 26.503 31.9776 26.503H28.8867" stroke="#2199B4" stroke-width="1.6"/>
<defs>
<linearGradient id="paint0_linear_692_161" x1="6.86352e-06" y1="80" x2="49.1944" y2="118.929" gradientUnits="userSpaceOnUse">
<stop stop-color="#F6F6F6"/>
<stop offset="1" stop-color="#F4FBFF"/>
</linearGradient>
</defs>
</svg>
