<svg width="34" height="42" viewBox="0 0 34 42" fill="none" xmlns="http://www.w3.org/2000/svg">
<path d="M1 35V37C1 39.2091 2.79086 41 5 41H29C31.2091 41 33 39.2091 33 37V10.1679C33 9.63384 32.7864 9.12196 32.4068 8.7463L25.1634 1.5784C24.789 1.20785 24.2835 1 23.7566 1H5C2.79087 1 1 2.79086 1 5V31" stroke="#2199B4" stroke-width="1.6" stroke-linecap="round"/>
<path d="M32.9999 9.33334H26.5789C25.4743 9.33334 24.5789 8.43791 24.5789 7.33334V1.00001" stroke="#2199B4" stroke-width="1.6"/>
<path d="M22.0527 7.66666H6.2106C5.65832 7.66666 5.2106 8.11437 5.2106 8.66666V13.3333C5.2106 13.8856 5.65832 14.3333 6.2106 14.3333H27.7896C28.3418 14.3333 28.7896 13.8856 28.7896 13.3333V11.8333" stroke="#2199B4" stroke-width="1.6"/>
<rect x="17.8422" y="18.5" width="10.9474" height="6.66667" rx="1" stroke="#2199B4" stroke-width="1.6"/>
<rect x="17.8422" y="28.5" width="10.9474" height="6.66667" rx="1" stroke="#2199B4" stroke-width="1.6"/>
<rect x="5.2106" y="18.5" width="8.42105" height="16.6667" rx="1" stroke="#2199B4" stroke-width="1.6"/>
</svg>
