<svg xmlns="http://www.w3.org/2000/svg" viewBox="0 0 89.1 25.1"><g id="Layer_2" data-name="Layer 2"><g id="Vrstva_1" data-name="Vrstva 1"><path d="M0,24.6H4.3l3.4-8H3.4Z" fill="#f9423a"/><path d="M15.5,8.4,8.7,24.6H13L19.8,8.4Z" fill="#f9423a"/><path d="M27.5.4,17.3,24.6h4.4L31.9.4Z" fill="#f9423a"/><path d="M32.9.4,30.8,5.5l4.2,10H26.6l-1.7,4H36.6l2.2,5.1h4.3Z" fill="#f9423a"/><path d="M45.1.3H56a8.84,8.84,0,0,1,6.4,2.2,5.35,5.35,0,0,1,1.6,4v.1A5.77,5.77,0,0,1,60.5,12c2.8,1,4.8,2.6,4.8,5.9V18c0,4.3-3.6,6.7-9,6.7H45.1Zm10,10.3c2.7,0,4.6-1.1,4.6-3.3V7.2c0-1.9-1.5-3.1-4.3-3.1H49.3v6.5Zm1.3,10.3c2.9,0,4.7-1.1,4.7-3.3v-.1c0-2-1.6-3.3-5-3.3H49.3v6.7Zm10.8-8.4A12.17,12.17,0,0,1,79.6,0,12.58,12.58,0,0,1,89,3.8L86.3,6.9a9.54,9.54,0,0,0-6.8-3c-4.6,0-8,3.8-8,8.5v.1c0,4.7,3.3,8.6,8,8.6,3,0,4.9-1.2,6.9-3.1l2.7,2.8a12.55,12.55,0,0,1-9.8,4.3A12.32,12.32,0,0,1,67.2,12.5Z" fill="#f9423a"/></g></g></svg>