<?xml version="1.0" encoding="UTF-8"?>
<!DOCTYPE svg PUBLIC "-//W3C//DTD SVG 1.1//EN" "http://www.w3.org/Graphics/SVG/1.1/DTD/svg11.dtd">
<!-- Creator: CorelDRAW (Evaluation Version) -->
<svg xmlns="http://www.w3.org/2000/svg" xml:space="preserve" width="23.4228mm" height="22.6452mm" version="1.1" style="shape-rendering:geometricPrecision; text-rendering:geometricPrecision; image-rendering:optimizeQuality; fill-rule:evenodd; clip-rule:evenodd"
viewBox="0 0 2289153 2213157"
 xmlns:xlink="http://www.w3.org/1999/xlink"
 xmlns:xodm="http://www.corel.com/coreldraw/odm/2003">
 <defs>
  <style type="text/css">
   <![CDATA[
    .fil1 {fill:black;fill-rule:nonzero}
    .fil0 {fill:#1B778B;fill-rule:nonzero}
   ]]>
  </style>
 </defs>
 <g id="Layer_x0020_1">
  <metadata id="CorelCorpID_0Corel-Layer"/>
  <g id="_105553231072544">
   <path class="fil0" d="M170777 1765242c-107847,-160700 -170777,-354063 -170777,-562134 0,-278897 113056,-531417 295844,-714195 153634,-153634 356535,-258002 582961,-287380l29701 67425c-218910,23534 -415311,122214 -562857,269769 -170024,170024 -275193,404922 -275193,664381 0,197360 60858,380499 164805,531690 -19879,15793 -41145,25361 -64483,30443zm1253968 118656l0 -30795c161443,0 245151,-61620 173239,-224930l-645186 -1465078 282494 -163095 23680 0 709318 1610660c65422,148582 177295,237029 320863,242443l0 30795 -864409 0zm-449097 -646398l0 246714 68793 0 0 -246714 246695 0 0 -68793 -246695 0 0 -246685 -68793 0 0 246685 -246695 0 0 68793 246695 0zm512066 -924533c87343,46960 166994,106401 236531,175947 182778,182778 295834,435298 295834,714195 0,85809 -10711,169115 -30844,248659l-49452 -112274c6480,-44527 9851,-90060 9851,-136385 0,-259458 -105169,-494357 -275203,-664381 -41995,-42015 -87978,-80052 -137294,-113535l-49423 -112225zm183022 1654140c-177119,153292 -408079,246050 -660687,246050 -252617,0 -483587,-92757 -660696,-246050l113652 0c154074,110515 342951,175595 547044,175595 204074,0 392960,-65080 547034,-175595l113652 0z"/>
   <path class="fil1" d="M713198 1853103l1955 30795 -589978 0 -1955 -30795c152344,0 225653,-93950 291358,-241769l127706 -287292 62568 0 -94341 212234c-90138,202774 -59685,316827 202686,316827z"/>
  </g>
 </g>
</svg>
